<?xml version="1.0" encoding="utf-8"?>
<!-- Generator: Adobe Illustrator 21.0.2, SVG Export Plug-In . SVG Version: 6.00 Build 0)  -->
<svg version="1.1" id="Calque_1" xmlns="http://www.w3.org/2000/svg" xmlns:xlink="http://www.w3.org/1999/xlink" x="0px" y="0px"
	 viewBox="0 0 359 75" style="enable-background:new 0 0 359 75;" xml:space="preserve">
<g>
	<path d="M173,41.3h-3.8v33.5h3.8V41.3z M18.7,75l14.4-33.7h-4.1l-12,28.8L5.2,41.3H1L15.4,75H18.7z M56.6,62.5H41.4L49,45.5
		L56.6,62.5z M62,74.8h4.1L50.9,41.1h-3.5L32.1,74.8h3.9l4-8.8h18.2L62,74.8z M72.7,74.8h22.6v-3.5H76.5v-30h-3.8V74.8z M102.3,74.8
		h24.4v-3.4h-20.7V59.6h18.3v-3.4h-18.3V44.7h20.4v-3.4h-24.2V74.8z M141.9,13.9L141.9,13.9c0-2.9-1.9-4.4-6.1-5.3
		c-4.1-0.9-5-1.9-5-3.6V4.9c0-1.7,1.5-3,4-3c1.9,0,3.6,0.6,5.4,2l1.2-1.6c-1.9-1.5-3.8-2.3-6.5-2.3c-3.5,0-6.1,2.2-6.1,5.1v0.1
		c0,3.1,2,4.4,6.2,5.4c3.9,0.8,4.8,1.8,4.8,3.5v0.1c0,1.8-1.6,3.2-4.1,3.2c-2.6,0-4.4-0.9-6.4-2.6l-1.3,1.5c2.2,2,4.6,3,7.6,3
		C139.2,19.2,141.9,17.1,141.9,13.9 M153.3,2.3h6.2V0.3h-14.6v1.9h6.2v16.7h2.1V2.3z M148.4,58.4h-10.3V44.8h10.3
		c5.4,0,8.6,2.5,8.6,6.6v0.1C157,55.8,153.4,58.4,148.4,58.4 M162,74.8l-10.3-13.7c5.3-1,9.1-4.2,9.1-9.8v-0.1c0-2.6-1-5-2.6-6.6
		c-2.1-2.1-5.4-3.3-9.5-3.3h-14.4v33.5h3.8v-13h9.5h0.1l9.7,13H162z M179.2,11V0.3h-2.1v10.8c0,4.1-2.2,6.1-5.6,6.1
		c-3.6,0-5.7-2.3-5.7-6.3V0.3h-2.1v10.8c0,5.3,3.1,8.1,7.7,8.1C176.1,19.2,179.2,16.4,179.2,11 M189.3,62.5l7.6-17.1l7.6,17.1H189.3
		z M195.2,41.1l-15.3,33.7h3.9l4-8.8H206l3.9,8.8h4.1l-15.3-33.7H195.2z M198.9,9.7c0,4.1-3,7.3-7.7,7.3h-4.4V2.3h4.4
		C195.9,2.3,198.9,5.5,198.9,9.7L198.9,9.7z M201,9.6L201,9.6c0-5.3-4-9.3-9.9-9.3h-6.5v18.6h6.5C197,18.9,201,14.8,201,9.6
		 M206.2,18.9h2.1V0.3h-2.1V18.9z M230.2,9.7c0,4.2-3,7.6-7.3,7.6c-4.3,0-7.3-3.5-7.3-7.7V9.6c0-4.2,3-7.6,7.3-7.6
		S230.2,5.4,230.2,9.7L230.2,9.7z M232.4,9.6C232.4,9.6,232.4,9.6,232.4,9.6c0-5.2-3.8-9.6-9.5-9.6c-5.7,0-9.5,4.5-9.5,9.6v0.1
		c0,5.1,3.8,9.6,9.5,9.6C228.6,19.2,232.4,14.7,232.4,9.6 M256.9,51.8c0,4.4-3.6,7.4-9.2,7.4h-8.3V44.5h8.5
		C253.3,44.5,256.9,46.9,256.9,51.8L256.9,51.8z M260.7,51.7L260.7,51.7c0-6.7-5-10.7-12.5-10.7h-12.5v34h3.8V62.6h8.1
		C254.7,62.6,260.7,58.9,260.7,51.7 M285.9,62.2h-15.3l7.6-17.1L285.9,62.2z M291.3,74.4h4.1l-15.3-33.7h-3.5l-15.3,33.7h3.9l4-8.8
		h18.2L291.3,74.4z M328.2,60.1V41h-3.8v19.5c0,7.3-3.9,11-10.1,11c-6.4,0-10.2-4.1-10.2-11.3V41h-3.8v19.5
		c0,9.5,5.6,14.5,13.9,14.5C322.6,75,328.2,69.9,328.2,60.1 M359.7,74.4v-3.5h-18.8V41h-3.8v33.5H359.7z"/>
</g>
</svg>
